<svg width="12" height="12" viewBox="0 0 12 12" fill="none" xmlns="http://www.w3.org/2000/svg">
<g clip-path="url(#clip0)">
<path d="M12 5.00782V6.9922L10.373 7.31271C10.2843 7.60767 10.1659 7.89253 10.0195 8.1637L10.9271 9.52512L9.52509 10.927L8.1637 10.0194C7.89255 10.1659 7.60765 10.2843 7.31269 10.3729L6.99218 12H5.00782L4.68729 10.373C4.39235 10.2843 4.10747 10.166 3.83627 10.0195L2.47491 10.927L1.07297 9.52509L1.98056 8.16368C1.83408 7.89251 1.71572 7.60765 1.62705 7.31269L0 6.99218V5.0078L1.62703 4.68727C1.7157 4.39233 1.83405 4.10745 1.98054 3.83627L1.07295 2.47486L2.47488 1.07292L3.83627 1.98052C4.10745 1.83401 4.39235 1.71567 4.68729 1.62701L5.00782 0H6.99218L7.31271 1.62703C7.60767 1.7157 7.89253 1.83403 8.16373 1.98054L9.52512 1.07294L10.9271 2.47488L10.0195 3.8363C10.1659 4.10747 10.2843 4.39233 10.373 4.68729L12 5.00782ZM10.0223 2.56448L9.43552 1.97773L8.18681 2.8102C7.5532 2.42613 7.34323 2.35303 6.70819 2.19614L6.41407 0.703125H5.58593L5.29181 2.19614C4.56916 2.37466 4.36915 2.47322 3.81319 2.8102L2.56448 1.97773L1.97773 2.56448L2.8102 3.81319C2.42351 4.45111 2.35184 4.66191 2.19614 5.29181L0.703125 5.58593V6.41405L2.19612 6.70816C2.34968 7.32949 2.42004 7.5432 2.81018 8.18679L1.9777 9.43549L2.56446 10.0222L3.81316 9.1898C4.45198 9.57698 4.66308 9.64852 5.29179 9.80386L5.58593 11.2969H6.41407L6.70819 9.80386C7.43224 9.62496 7.63205 9.52608 8.18681 9.1898L9.43552 10.0222L10.0223 9.43549L9.1898 8.18679C9.57309 7.55447 9.64659 7.34449 9.80386 6.70816L11.2969 6.41407V5.58595L9.80388 5.29184C9.62491 4.56776 9.52655 4.36873 9.18982 3.81321L10.0223 2.56448Z" fill="#374D73"/>
<path d="M6 8.46094C4.64304 8.46094 3.53906 7.35696 3.53906 6C3.53906 4.64304 4.64304 3.53906 6 3.53906C7.35696 3.53906 8.46094 4.64304 8.46094 6C8.46094 7.35696 7.35696 8.46094 6 8.46094ZM6 4.24219C5.03074 4.24219 4.24219 5.03074 4.24219 6C4.24219 6.96926 5.03074 7.75781 6 7.75781C6.96926 7.75781 7.75781 6.96926 7.75781 6C7.75781 5.03074 6.96926 4.24219 6 4.24219Z" fill="#374D73"/>
</g>
<defs>
<clipPath id="clip0">
<rect width="12" height="12" rx="3" transform="matrix(1 0 0 -1 0 12)" fill="white"/>
</clipPath>
</defs>
</svg>
